<svg width="12" height="20" viewBox="0 0 12 20" fill="none" xmlns="http://www.w3.org/2000/svg">
    <path d="M11.4532 0.88C11.337 0.763592 11.1991 0.671235 11.0472 0.608219C10.8954 0.545203 10.7326 0.512766 10.5682 0.512766C10.4037 0.512766 10.2409 0.545203 10.0891 0.608219C9.93721 0.671235 9.79927 0.763592 9.68316 0.88L1.27316 9.29C1.18045 9.38251 1.10691 9.4924 1.05672 9.61338C1.00654 9.73435 0.980713 9.86403 0.980713 9.995C0.980713 10.126 1.00654 10.2557 1.05672 10.3766C1.10691 10.4976 1.18045 10.6075 1.27316 10.7L9.68316 19.11C10.1732 19.6 10.9632 19.6 11.4532 19.11C11.9432 18.62 11.9432 17.83 11.4532 17.34L4.11316 10L11.4632 2.65C11.9432 2.16 11.9432 1.37 11.4532 0.88Z" fill="#F2F2F2"/>
</svg>
